<?xml version="1.0" standalone="no"?>
<!DOCTYPE svg PUBLIC "-//W3C//DTD SVG 20010904//EN"
 "http://www.w3.org/TR/2001/REC-SVG-20010904/DTD/svg10.dtd">
<svg version="1.0" xmlns="http://www.w3.org/2000/svg"
 width="252.000000pt" height="256.000000pt" viewBox="0 0 252.000000 256.000000"
 preserveAspectRatio="xMidYMid meet">

<g transform="translate(0.000000,256.000000) scale(0.100000,-0.100000)"
fill="#000000" stroke="none">
<path d="M2080 2435 l0 -55 -587 -2 -588 -3 -51 -115 c-28 -63 -54 -125 -58
-137 l-7 -23 640 0 640 0 3 -60 3 -59 154 117 154 117 -144 137 c-79 76 -147
138 -151 138 -5 0 -8 -25 -8 -55z"/>
<path d="M700 2284 c-506 -311 -683 -928 -420 -1459 74 -150 248 -347 369
-418 l30 -17 32 99 33 99 -35 28 c-160 129 -273 305 -321 501 -30 123 -30 303
0 426 38 153 110 286 224 412 54 60 62 76 175 363 9 21 -10 14 -87 -34z"/>
<path d="M1287 2033 c-7 -13 -577 -1950 -577 -1962 0 -8 46 -11 157 -9 l158 3
51 175 c167 564 526 1777 529 1788 3 9 -32 12 -155 12 -87 0 -161 -3 -163 -7z"/>
<path d="M2120 1893 c-41 -30 -77 -56 -79 -58 -2 -2 17 -46 42 -97 66 -133 88
-219 94 -369 6 -143 -9 -245 -57 -367 -127 -328 -439 -555 -796 -579 l-91 -6
-22 -83 c-12 -46 -24 -91 -28 -100 -10 -28 242 -14 372 20 119 31 293 115 386
185 182 138 322 335 392 551 69 214 69 465 0 680 -25 80 -92 220 -121 257
l-17 22 -75 -56z"/>
</g>
</svg>
